<?xml version="1.0" standalone="no"?>
<!DOCTYPE svg PUBLIC "-//W3C//DTD SVG 1.1//EN" "http://www.w3.org/Graphics/SVG/1.1/DTD/svg11.dtd" >
<svg>
<metadata>
Created by FontForge 20090914 at Fri Feb 24 10:28:14 2012
 By root
Freeware by Salvo Nicolosi
</metadata>
<defs>
<font id="Maagkramp" horiz-adv-x="566" >
  <font-face 
    font-family="Maagkramp"
    font-weight="400"
    font-stretch="normal"
    units-per-em="1000"
    panose-1="2 0 5 0 0 0 0 0 0 0"
    ascent="800"
    descent="-200"
    x-height="469"
    cap-height="664"
    bbox="49 -195 1219 771"
    underline-thickness="73"
    underline-position="-71"
    unicode-range="U+0020-U+00BB"
  />
<missing-glyph horiz-adv-x="500" 
 />
    <glyph glyph-name=".notdef" horiz-adv-x="500" 
 />
    <glyph glyph-name="NULL" horiz-adv-x="0" 
 />
    <glyph glyph-name="nonmarkingreturn" horiz-adv-x="248" 
 />
    <glyph glyph-name="space" unicode=" " horiz-adv-x="248" 
 />
    <glyph glyph-name="space" unicode="&#xa0;" horiz-adv-x="248" 
 />
    <glyph glyph-name="exclam" unicode="!" horiz-adv-x="254" 
d="M137 664q44 0 68 -62v-338q0 -44 -62 -69h-26q-44 0 -68 63v338q0 44 62 68h26zM137 156q44 0 68 -62v-26q0 -44 -62 -68h-26q-44 0 -68 62v26q0 44 62 68h26z" />
    <glyph glyph-name="quotedbl" unicode="&#x22;" horiz-adv-x="449" 
d="M137 664q44 0 68 -62l2 -41v-67q0 -79 -47 -96q0 -4 -23 -7h-20q-44 0 -68 62v143q0 44 62 68h26zM312 664h20q44 0 68 -62v-143q0 -44 -62 -68h-26q-43 0 -68 62l-2 41v67q0 79 47 95q0 5 23 8z" />
    <glyph glyph-name="numbersign" unicode="#" 
d="M162 469h8q36 0 66 -39h94q31 39 66 39h8q41 0 71 -47q43 -26 43 -67v-7q0 -36 -39 -67v-94q39 -32 39 -60v-14q0 -41 -47 -70q-26 -43 -67 -43h-8q-35 0 -64 37h-98q-28 -37 -64 -37h-8q-41 0 -70 47q-43 25 -43 66v14q0 27 37 59v97q-37 29 -37 65v7q0 41 47 71
q25 43 66 43zM244 271v-76h76v76h-76z" />
    <glyph glyph-name="dollar" unicode="$" horiz-adv-x="508" 
d="M234 737h20q44 0 68 -62v-20q102 -19 102 -88v-5q0 -52 -67 -81l-17 -3q-13 0 -86 23l-10 2q-37 -7 -37 -35v-8q0 -28 131 -68q121 -54 121 -170v-22q0 -97 -96 -170l-41 -23v-22q0 -44 -62 -68h-26q-25 1 -48 25q-22 24 -22 65q-115 39 -115 96v19q12 47 25 47
q21 25 51 25h10q11 0 92 -39l15 -2h6q36 0 53 49v16q0 52 -127 74q-125 44 -125 162v20q0 100 107 166q8 0 8 4q0 70 57 91z" />
    <glyph glyph-name="percent" unicode="%" 
d="M131 469q41 0 103 -74q277 -272 278 -284l6 -25v-16q0 -41 -53 -66l-18 -4h-15q-36 0 -96 70q-277 273 -277 282q-10 17 -10 35v13q0 43 60 69h22zM449 469q44 0 69 -63v-25q0 -44 -63 -69h-25q-44 0 -69 63v25q0 44 63 69h25zM137 156q44 0 68 -62v-26q0 -44 -62 -68
h-26q-44 0 -68 62v26q0 44 62 68h26z" />
    <glyph glyph-name="ampersand" unicode="&#x26;" horiz-adv-x="833" 
 />
    <glyph glyph-name="quotesingle" unicode="'" horiz-adv-x="256" 
d="M137 664q44 0 68 -62l2 -41v-67q0 -79 -47 -96q0 -4 -23 -7h-20q-44 0 -68 62v143q0 44 62 68h26z" />
    <glyph glyph-name="parenleft" unicode="(" horiz-adv-x="316" 
 />
    <glyph glyph-name="parenright" unicode=")" horiz-adv-x="316" 
 />
    <glyph glyph-name="asterisk" unicode="*" 
d="M279 469h8q47 0 70 -53q23 8 36 8h2q62 0 78 -74v-6q0 -12 -8 -35h2q51 -26 51 -71v-8q0 -46 -53 -70q8 -23 8 -35v-2q0 -62 -75 -78h-5q-13 0 -36 8v-2q-25 -51 -70 -51h-8q-47 0 -70 53q-23 -8 -35 -8h-2q-60 0 -78 70v10q0 12 8 35h-2q-51 26 -51 70v8q0 47 53 71
q-8 23 -8 35v2q0 59 70 78h10q12 0 35 -8v2q25 51 70 51z" />
    <glyph glyph-name="plus" unicode="+" 
d="M273 469h20q44 0 68 -63v-94h88q44 0 69 -62v-25q0 -44 -63 -69l-41 -2h-53v-86q0 -44 -62 -68h-26q-44 0 -68 62l-2 42v50h-51q-79 0 -95 47q-5 0 -8 24v19q0 44 62 68h92v53q0 80 47 96q0 4 23 8z" />
    <glyph glyph-name="comma" unicode="," horiz-adv-x="281" 
d="M158 311q52 0 74 -63v-16q-26 -205 -46 -205q0 -12 -47 -27h-16q-52 0 -74 62v16q27 205 47 205q0 13 47 28h15z" />
    <glyph glyph-name="hyphen" unicode="-" 
d="M449 312q44 0 69 -62v-25q0 -44 -63 -69h-338q-44 0 -68 63v25q0 44 62 68h338z" />
    <glyph glyph-name="hyphen" unicode="&#xad;" 
d="M449 312q44 0 69 -62v-25q0 -44 -63 -69h-338q-44 0 -68 63v25q0 44 62 68h338z" />
    <glyph glyph-name="period" unicode="." horiz-adv-x="254" 
d="M137 156q44 0 68 -62v-26q0 -44 -62 -68h-26q-44 0 -68 62v26q0 44 62 68h26z" />
    <glyph glyph-name="slash" unicode="/" 
d="M430 469h19q43 0 69 -61v-27q0 -33 -77 -100q-268 -273 -279 -273q-15 -8 -25 -8h-20q-43 0 -68 61v27q0 33 76 99q268 274 279 274q16 8 26 8z" />
    <glyph glyph-name="zero" unicode="0" horiz-adv-x="762" 
d="M365 664h31q129 0 241 -119q76 -100 76 -197v-32q0 -129 -119 -240q-100 -76 -198 -76h-31q-129 0 -240 119q-76 100 -76 197v32q0 129 119 240q100 76 197 76zM207 340v-16q0 -99 107 -154q33 -12 59 -12h16q99 0 154 108q12 32 12 58v16q0 99 -108 154q-32 12 -58 12
h-16q-99 0 -154 -108q-12 -32 -12 -58z" />
    <glyph glyph-name="one" unicode="1" horiz-adv-x="254" 
d="M137 664q44 0 68 -62v-534q0 -44 -62 -68h-26q-44 0 -68 62v534q0 44 62 68h26z" />
    <glyph glyph-name="two" unicode="2" 
d="M271 664h24q108 0 187 -109q36 -60 36 -114v-27q0 -104 -141 -215l-43 -41h82q76 0 94 -47q8 -13 8 -35q0 -53 -63 -76h-338q-44 0 -68 62v24q0 37 88 105q196 179 213 200q9 18 9 29v19q0 44 -60 67h-26q-35 0 -60 -45q-6 -11 -10 -55q-27 -54 -66 -54h-20q-44 0 -68 62
v27q0 109 109 188q60 35 113 35z" />
    <glyph glyph-name="three" unicode="3" 
d="M449 664q43 0 69 -60v-28q0 -34 -86 -109l-30 -31q116 -64 116 -186v-27q0 -86 -100 -176q-68 -47 -121 -47h-26q-108 0 -187 109q-35 60 -35 114v21q0 44 62 68h26q37 0 64 -50q8 -60 18 -69q24 -35 54 -35h20q43 0 66 61v25q-1 25 -25 49q-19 21 -105 21q-61 26 -61 69
v19q0 34 76 100l2 2v2h-55q-79 0 -95 47q-5 0 -8 23v20q0 44 62 68h299z" />
    <glyph glyph-name="four" unicode="4" horiz-adv-x="564" 
 />
    <glyph glyph-name="five" unicode="5" 
d="M410 664q44 0 69 -62v-26q0 -44 -63 -68l-41 -2h-170v-37h90q108 0 187 -110q36 -59 36 -113v-23q0 -109 -110 -188q-59 -35 -113 -35h-24q-108 0 -187 109q-35 60 -35 114v21q0 36 47 63l13 4v3q-26 0 -52 41q-8 16 -8 26v215q0 44 62 68h299zM150 311v-2q27 0 53 -51
q0 -79 59 -98l11 -2h20q43 0 66 61v25q0 44 -60 67h-149z" />
    <glyph glyph-name="six" unicode="6" 
d="M273 664h20q44 0 68 -62v-26q0 -12 -49 -109q66 0 141 -71q65 -71 65 -152v-21q0 -109 -110 -188q-59 -35 -113 -35h-24q-108 0 -187 109q-35 60 -35 114v21q0 65 78 203q91 194 103 198q25 19 43 19zM207 225q0 -43 61 -67h25q43 0 66 61v25q0 44 -60 67h-26
q-44 0 -66 -61v-25z" />
    <glyph glyph-name="seven" unicode="7" 
d="M447 664q37 0 69 -60l2 -10v-24q0 -13 -59 -101l-275 -448q-23 -21 -43 -21h-18q-38 0 -72 64l-2 8v22q0 12 41 74l207 338h-145q-79 0 -95 47q-5 0 -8 23v20q0 44 62 68h336z" />
    <glyph glyph-name="eight" unicode="8" 
d="M275 664h16q100 0 156 -109q12 -31 12 -59v-16q0 -31 -18 -74q77 -73 77 -160v-23q0 -105 -106 -186q-63 -37 -117 -37h-24q-104 0 -185 105q-37 63 -37 118v23q0 86 76 162v2q-18 34 -18 70v16q0 100 110 156q31 12 58 12zM266 490v-4q0 -15 15 -15h4q16 0 16 15v4
q0 16 -16 16h-4q-15 0 -15 -16zM207 225q0 -43 61 -67h25q43 0 66 61v25q0 44 -60 67h-26q-43 0 -66 -61v-25z" />
    <glyph glyph-name="nine" unicode="9" 
d="M271 664h24q108 0 187 -109q36 -60 36 -114v-21q0 -62 -71 -190l-101 -201q-29 -29 -53 -29h-20q-44 0 -68 62v22q0 20 35 84l14 29q-66 0 -141 71q-64 71 -64 152v21q0 109 109 188q60 35 113 35zM207 420q0 -43 61 -66h25q44 0 66 60v25q0 44 -60 67h-26q-43 0 -66 -61
v-25z" />
    <glyph glyph-name="colon" unicode=":" horiz-adv-x="254" 
d="M137 469q44 0 68 -63v-25q0 -44 -62 -69h-26q-44 0 -68 63v25q0 44 62 69h26zM137 156q44 0 68 -62v-26q0 -44 -62 -68h-26q-44 0 -68 62v26q0 44 62 68h26z" />
    <glyph glyph-name="semicolon" unicode=";" horiz-adv-x="281" 
d="M145 467h19q44 0 68 -63v-25q0 -33 -43 -61q-15 -7 -35 -9q-56 0 -78 66l-2 14q0 30 30 60q24 18 41 18zM150 154h12q48 0 70 -64v-14q-26 -205 -46 -205q0 -13 -47 -27h-16q-52 0 -74 62v16q27 201 43 201q24 31 58 31z" />
    <glyph glyph-name="semicolon" unicode="&#x37e;" horiz-adv-x="281" 
d="M145 467h19q44 0 68 -63v-25q0 -33 -43 -61q-15 -7 -35 -9q-56 0 -78 66l-2 14q0 30 30 60q24 18 41 18zM150 154h12q48 0 70 -64v-14q-26 -205 -46 -205q0 -13 -47 -27h-16q-52 0 -74 62v16q27 201 43 201q24 31 58 31z" />
    <glyph glyph-name="less" unicode="&#x3c;" horiz-adv-x="410" 
d="M277 469h16q38 0 64 -51l4 -23v-12q0 -34 -70 -94l-51 -55q117 -114 117 -130q4 -8 4 -22v-14q0 -43 -60 -68h-28q-33 0 -109 86l-103 103q-12 27 -12 36v13q0 41 64 94q126 132 143 133q8 4 21 4z" />
    <glyph glyph-name="equal" unicode="=" 
d="M449 391q44 0 69 -63v-25q0 -44 -63 -69l-41 -2h-262q-79 0 -95 47q-5 0 -8 24v19q0 44 62 69h338zM449 156q44 0 69 -62v-26q0 -44 -63 -68h-338q-44 0 -68 62v26q0 44 62 68h338z" />
    <glyph glyph-name="greater" unicode="&#x3e;" horiz-adv-x="410" 
d="M137 469q33 0 109 -86q106 -105 106 -110q9 -18 9 -29v-14q0 -40 -64 -93q-126 -132 -143 -133q-8 -4 -21 -4h-16q-37 0 -64 51l-4 23v12q0 34 70 94l51 54q-117 115 -117 131q-4 8 -4 22v13q0 44 60 69h28z" />
    <glyph glyph-name="question" unicode="?" 
d="M271 664h24q104 0 185 -105q38 -63 38 -118v-23q0 -105 -106 -186q-63 -37 -117 -37h-22q-44 0 -68 63v25q0 38 51 65q59 7 68 17q35 25 35 55v19q0 44 -60 67h-26q-35 0 -60 -45q-6 -11 -10 -55q-27 -54 -66 -54h-20q-44 0 -68 62v27q0 105 105 186q63 37 117 37z
M293 156q44 0 68 -62v-26q0 -44 -62 -68h-26q-44 0 -68 62v26q0 44 63 68h25z" />
    <glyph glyph-name="at" unicode="@" horiz-adv-x="957" 
d="M461 664h35q159 0 301 -139q111 -134 111 -273v-84q0 -100 -109 -156q-32 -12 -59 -12h-15q-56 0 -110 43q-64 -43 -125 -43h-23q-105 0 -186 105q-37 63 -37 118v23q0 105 106 186q63 37 117 37h23q105 0 186 -106q37 -63 37 -117v-59q0 -29 17 -29h4q16 0 16 16v72
q0 127 -125 219q-72 41 -135 41h-23q-127 0 -219 -125q-41 -72 -41 -135v-23q0 -127 125 -219q70 -43 164 -43q61 -26 61 -68v-20q0 -44 -63 -68h-29q-182 0 -326 164q-90 126 -90 248v35q0 159 138 301q135 111 274 111zM402 225q0 -43 61 -67h25q44 0 67 61v25
q0 44 -61 67h-25q-43 0 -67 -61v-25z" />
    <glyph glyph-name="A" unicode="A" horiz-adv-x="760" 
d="M381 664q56 0 92 -96q224 -439 238 -472v-24q0 -27 -53 -66l-21 -6h-12q-50 0 -80 76l-22 41h-291q-45 -107 -66 -107q-9 -10 -31 -10h-16q-36 0 -66 53l-4 17v18q0 15 94 203q122 259 173 346q24 25 49 27h16zM312 275h129l-64 131q-16 -24 -65 -131z" />
    <glyph glyph-name="B" unicode="B" horiz-adv-x="576" 
d="M125 664h203q121 0 186 -129q13 -41 13 -76q0 -65 -43 -125v-4q43 -51 43 -117v-14q0 -118 -127 -183q-35 -16 -119 -16h-164q-44 0 -68 62v530q0 35 60 68zM207 506v-96h105q59 9 59 55q-12 41 -41 41h-123zM205 252v-94h123q43 15 43 45v8q-10 41 -41 41h-125z" />
    <glyph glyph-name="C" unicode="C" horiz-adv-x="687" 
d="M365 664h33q94 0 196 -76q45 -38 45 -67v-15q0 -54 -67 -72l-11 -2q-35 0 -77 41q-46 33 -95 33h-16q-90 0 -146 -92q-20 -37 -20 -78v-8q0 -117 129 -166l37 -4h16q67 0 132 65q28 9 40 9q58 0 78 -66v-23q0 -54 -133 -120q-67 -23 -108 -23h-33q-128 0 -240 119
q-76 100 -76 197v32q0 129 119 240q101 76 197 76z" />
    <glyph glyph-name="D" unicode="D" horiz-adv-x="645" 
d="M279 664q129 0 241 -119q76 -100 76 -197v-32q0 -129 -119 -240q-101 -76 -198 -76h-162q-44 0 -68 62v534q0 44 62 68h168zM207 508v-186l-2 -166q121 0 147 26q85 55 85 142v16q0 101 -111 156q-31 12 -99 12h-20z" />
    <glyph glyph-name="E" unicode="E" 
d="M449 664q44 0 69 -62v-26q0 -44 -63 -68l-168 -2h-80v-96h203q44 0 69 -62v-26q0 -44 -63 -68l-41 -2h-168v-96l195 2h12q80 0 96 -47q4 0 8 -23v-20q0 -44 -63 -68h-338q-44 0 -68 62v534q0 44 62 68h338z" />
    <glyph glyph-name="F" unicode="F" 
d="M449 664q44 0 69 -62v-26q0 -44 -63 -68h-250l2 -127v-29h203q44 0 69 -63v-25q0 -31 -40 -59q-16 -12 -60 -12h-172v-89q0 -80 -47 -96q0 -5 -23 -8h-20q-44 0 -68 62v534q0 44 62 68h338z" />
    <glyph glyph-name="G" unicode="G" horiz-adv-x="687" 
d="M365 664h33q81 0 178 -62q63 -44 63 -86v-14q0 -19 -24 -49q-30 -21 -54 -21q-35 0 -77 41q-46 33 -95 33h-16q-99 0 -154 -108q-12 -32 -12 -58v-16q0 -99 107 -154q33 -12 59 -12h16q49 0 91 31v41h-125q-43 0 -68 63v25q0 31 39 59q17 12 61 12h152q79 0 98 -57l2 -14
v-175q0 -54 -133 -120q-68 -23 -108 -23h-33q-129 0 -240 119q-76 100 -76 197v32q0 129 119 240q100 76 197 76z" />
    <glyph glyph-name="H" unicode="H" horiz-adv-x="645" 
d="M137 664q44 0 68 -62l2 -41v-149h232v184q0 44 63 68h25q44 0 69 -62v-534q0 -44 -63 -68h-25q-44 0 -69 62l-2 42v150h-232v-186q0 -44 -62 -68h-26q-44 0 -68 62v534q0 44 62 68h26z" />
    <glyph glyph-name="I" unicode="I" horiz-adv-x="254" 
d="M137 664q44 0 68 -62v-534q0 -44 -62 -68h-26q-44 0 -68 62v534q0 44 62 68h26z" />
    <glyph glyph-name="J" unicode="J" horiz-adv-x="449" 
d="M312 664h20q44 0 68 -62v-340q0 -128 -127 -221q-71 -41 -134 -41h-22q-44 0 -68 62v26q0 37 51 64l74 14q68 40 68 98v297q0 79 47 95q0 5 23 8z" />
    <glyph glyph-name="K" unicode="K" horiz-adv-x="664" 
d="M137 664q44 0 68 -62l2 -41v-206h2q0 22 90 104q195 201 209 201l25 4h8q52 0 74 -62v-26q0 -33 -80 -103l-139 -141q209 -209 209 -215q10 -18 10 -29v-20q0 -44 -62 -68h-26q-33 0 -109 86q-207 202 -207 213l-2 8h-2v-2l-2 -213v-24q0 -44 -62 -68h-26q-44 0 -68 62
v534q0 44 62 68h26z" />
    <glyph glyph-name="L" unicode="L" 
d="M137 664q37 0 64 -51l6 -35l-2 -420v-2h244q44 0 69 -62v-26q0 -44 -63 -68h-338q-44 0 -68 62v534q0 44 62 68h26z" />
    <glyph glyph-name="M" unicode="M" horiz-adv-x="762" 
d="M137 664q33 0 109 -86l135 -133q208 209 215 209q18 10 29 10h20q43 0 68 -60v-536q0 -44 -63 -68h-25q-30 0 -59 39q-11 17 -11 61v293q-134 -135 -145 -135l-23 -4h-12q-39 0 -100 72l-68 67v-4l-2 -327q-24 -62 -68 -62h-20q-44 0 -68 62v534q0 43 60 68h28z" />
    <glyph glyph-name="N" unicode="N" horiz-adv-x="762" 
d="M137 664q33 0 105 -82l313 -311v293q0 79 56 98l14 2h20q43 0 68 -62v-534q0 -43 -61 -68h-27q-34 0 -105 82l-313 311v-284q0 -72 -29 -91q-25 -18 -41 -18h-20q-44 0 -68 62v534q0 43 60 68h28z" />
    <glyph glyph-name="O" unicode="O" horiz-adv-x="762" 
d="M365 664h31q129 0 241 -119q76 -100 76 -197v-32q0 -129 -119 -240q-100 -76 -198 -76h-31q-129 0 -240 119q-76 100 -76 197v32q0 129 119 240q100 76 197 76zM207 340v-16q0 -99 107 -154q33 -12 59 -12h16q99 0 154 108q12 32 12 58v16q0 99 -108 154q-32 12 -58 12
h-16q-99 0 -154 -108q-12 -32 -12 -58z" />
    <glyph glyph-name="P" unicode="P" 
d="M295 664q103 0 185 -105q38 -65 38 -118v-23q0 -104 -106 -186q-65 -37 -117 -37h-88v-82q0 -79 -27 -92q0 -10 -43 -21h-20q-44 0 -68 62v534q0 44 62 68h184zM207 508v-154h86q43 0 66 60v25q0 43 -60 67l-41 2h-51z" />
    <glyph glyph-name="Q" unicode="Q" horiz-adv-x="762" 
d="M365 664h31q129 0 241 -119q76 -100 76 -197v-24q0 -81 -47 -166q47 -38 47 -76v-8q0 -52 -63 -74h-19q-36 0 -78 47q-81 -47 -164 -47h-24q-129 0 -240 119q-76 100 -76 197v32q0 129 119 240q100 76 197 76zM207 340v-16q0 -99 107 -154q33 -12 59 -12h16q44 2 45 10
q-71 61 -71 94v19q17 69 74 69h8q41 0 98 -69l2 -2h2q8 18 8 45v16q0 99 -108 154q-32 12 -58 12h-16q-99 0 -154 -108q-12 -32 -12 -58z" />
    <glyph glyph-name="R" unicode="R" 
d="M295 664q103 0 185 -105q38 -65 38 -118v-23q0 -109 -116 -191q112 -105 112 -123q4 -8 4 -22v-8q0 -52 -63 -74h-19q-41 0 -98 68l-129 127h-2v-82q0 -79 -27 -92q0 -10 -43 -21h-20q-44 0 -68 62v534q0 44 62 68h184zM207 508v-154h86q43 0 66 60v25q0 43 -60 67l-41 2
h-51z" />
    <glyph glyph-name="S" unicode="S" horiz-adv-x="508" 
d="M238 664h33q111 0 145 -59q8 -19 8 -33v-6q0 -51 -67 -80l-19 -4q-11 0 -84 24h-14q-33 -6 -33 -33v-8q0 -28 125 -67q127 -52 127 -171v-20q0 -120 -127 -189q-42 -18 -80 -18h-18q-82 0 -158 57q-25 25 -27 50v20q0 44 66 72h20q12 0 95 -41h18q36 0 53 49v16
q0 52 -127 74q-125 44 -125 162v16q0 107 111 171q41 18 78 18z" />
    <glyph glyph-name="T" unicode="T" horiz-adv-x="645" 
d="M527 664q44 0 69 -62v-26q0 -44 -63 -68l-41 -2h-90v-383q0 -87 -21 -96q0 -12 -47 -27h-22q-43 0 -68 62l-2 14l2 14v416h-92q-79 0 -95 47q-5 0 -8 23v20q0 44 62 68h416z" />
    <glyph glyph-name="U" unicode="U" horiz-adv-x="645" 
d="M137 664q44 0 68 -62v-297q0 -101 53 -127q27 -20 54 -20h20q62 0 98 72q7 17 7 34v297q0 79 47 95q0 5 24 8h19q44 0 69 -62v-340q0 -128 -127 -221q-72 -41 -135 -41h-23q-128 0 -221 127q-41 72 -41 135v334q0 44 62 68h26z" />
    <glyph glyph-name="V" unicode="V" horiz-adv-x="760" 
d="M119 664h16q52 0 80 -80l162 -326q70 146 191 375q24 31 57 31h12q38 0 72 -64l2 -8v-24l-268 -533q-27 -35 -62 -35h-14q-46 0 -80 80q-88 169 -236 484l-2 12v18q0 38 55 66z" />
    <glyph glyph-name="W" unicode="W" horiz-adv-x="1268" 
d="M119 664h16q52 0 80 -80l162 -326q62 131 189 371q24 35 59 35h18q51 0 80 -80l162 -326q115 236 193 377q22 29 55 29h12q38 0 72 -64l2 -8v-24l-268 -533q-28 -35 -62 -35h-14q-50 0 -94 105q-43 82 -148 303h-2l-192 -379q-27 -29 -58 -29h-14q-46 0 -80 80
q-85 165 -236 484l-2 12v18q0 38 55 66z" />
    <glyph glyph-name="X" unicode="X" horiz-adv-x="762" 
d="M137 664q33 0 103 -80l141 -139q209 209 215 209q18 10 29 10h20q43 0 68 -62v-26q0 -33 -80 -103l-139 -141q209 -209 209 -215q10 -18 10 -29v-20q0 -44 -63 -68h-25q-34 0 -109 86l-135 133q-209 -209 -215 -209q-18 -10 -29 -10h-20q-42 0 -68 61v27q0 33 80 103
l139 141q-209 209 -209 215q-10 18 -10 29v20q0 44 62 68h26z" />
    <glyph glyph-name="Y" unicode="Y" horiz-adv-x="762" 
d="M137 664q33 0 103 -80l141 -139q209 209 215 209q18 10 29 10h20q43 0 68 -62v-26q0 -33 -72 -96l-182 -183v-229q0 -44 -63 -68h-25q-30 0 -59 39q-11 17 -11 61v199q-242 242 -242 248q-10 18 -10 29v20q0 44 62 68h26z" />
    <glyph glyph-name="Z" unicode="Z" horiz-adv-x="762" 
d="M645 664q43 0 68 -60v-28q0 -34 -88 -111l-305 -307l186 -2h139q43 0 68 -62v-26q0 -44 -63 -68h-533q-43 0 -68 61v23q0 39 78 105l314 317l-205 2h-119q-44 0 -68 62v26q0 44 62 68h534z" />
    <glyph glyph-name="bracketleft" unicode="[" horiz-adv-x="410" 
d="M293 664q44 0 68 -62v-26q0 -44 -62 -68l-41 -2h-53v-350h88q44 0 68 -62v-26q0 -44 -62 -68h-182q-44 0 -68 62v534q0 44 62 68h182z" />
    <glyph glyph-name="backslash" unicode="\" 
d="M137 469q33 0 99 -76q274 -268 274 -280q8 -15 8 -25v-20q0 -43 -61 -68h-27q-34 0 -100 76q-273 268 -273 279q-8 16 -8 26v19q0 43 60 69h28z" />
    <glyph glyph-name="bracketright" unicode="]" horiz-adv-x="410" 
d="M293 664q44 0 68 -62v-534q0 -44 -62 -68h-182q-44 0 -68 62v26q0 44 62 68h92v350h-51q-79 0 -95 47q-5 0 -8 23v20q0 44 62 68h182z" />
    <glyph glyph-name="asciicircum" unicode="^" horiz-adv-x="495" 
 />
    <glyph glyph-name="underscore" unicode="_" 
d="M449 156q44 0 69 -62v-26q0 -44 -63 -68h-338q-44 0 -68 62v26q0 44 62 68h338z" />
    <glyph glyph-name="grave" unicode="`" horiz-adv-x="323" 
d="M274 527h-34l-161 98q-15 10 -22.5 20t-7.5 21q0 15 10 24.5t26 9.5q10 0 20 -6t27 -23z" />
    <glyph glyph-name="a" unicode="a" 
d="M271 469h24q104 0 185 -106q38 -63 38 -117v-178q0 -44 -63 -68h-25q-17 0 -47 21q-45 -21 -90 -21h-22q-104 0 -185 105q-37 63 -37 118v23q0 105 105 186q63 37 117 37zM207 225q0 -43 61 -67h25q43 0 66 61v25q0 44 -60 67h-26q-43 0 -66 -61v-25z" />
    <glyph glyph-name="b" unicode="b" 
d="M137 664q30 0 58 -39q12 -17 12 -61v-107q34 12 66 12h22q104 0 185 -106q38 -63 38 -117v-23q0 -105 -106 -186q-63 -37 -117 -37h-24q-104 0 -185 105q-37 63 -37 118v373q0 44 62 68h26zM207 225q0 -43 61 -67h25q43 0 66 61v25q0 44 -60 67h-26q-43 0 -66 -61v-25z
" />
    <glyph glyph-name="c" unicode="c" horiz-adv-x="410" 
d="M271 469h22q44 0 68 -63v-25q0 -38 -50 -65q-60 -7 -69 -17q-35 -25 -35 -55v-19q0 -36 45 -61q11 -6 55 -10q54 -27 54 -66v-20q0 -44 -62 -68h-28q-104 0 -185 105q-37 63 -37 118v23q0 105 105 186q63 37 117 37z" />
    <glyph glyph-name="d" unicode="d" 
d="M430 664h19q44 0 69 -62v-379q0 -105 -106 -186q-63 -37 -117 -37h-24q-104 0 -185 105q-37 63 -37 118v23q0 105 105 186q63 37 117 37h22q33 0 66 -12v2l2 143q25 62 69 62zM207 225q0 -43 61 -67h25q43 0 66 61v25q0 44 -60 67h-26q-43 0 -66 -61v-25z" />
    <glyph glyph-name="e" unicode="e" 
d="M271 469h20q80 0 168 -76q57 -60 57 -110v-13q0 -40 -67 -94l-17 -20h17q44 0 69 -62v-26q0 -44 -63 -68h-184q-104 0 -185 105q-37 63 -37 118v23q0 105 105 186q63 37 117 37zM207 225q0 -17 22 -47l111 111q-29 22 -47 22h-20q-43 0 -66 -61v-25z" />
    <glyph glyph-name="f" unicode="f" horiz-adv-x="410" 
d="M271 664h22q44 0 68 -62v-26q0 -37 -50 -64q-60 -8 -69 -18q-35 -24 -35 -55l-2 -127h88q44 0 68 -62v-25q0 -44 -62 -69l-41 -2h-53v-86q0 -44 -62 -68h-26q-44 0 -68 62v379q0 105 105 186q63 37 117 37z" />
    <glyph glyph-name="g" unicode="g" 
d="M271 469h24q104 0 185 -106q38 -63 38 -117v-219q0 -104 -106 -185q-63 -37 -117 -37h-22q-44 0 -68 62v26q0 30 39 58q16 9 68 16q42 26 42 43h-2q-26 -10 -59 -10h-22q-104 0 -185 105q-37 63 -37 118v23q0 105 105 186q63 37 117 37zM207 225q0 -43 61 -67h25
q43 0 66 61v25q0 44 -60 67h-26q-43 0 -66 -61v-25z" />
    <glyph glyph-name="h" unicode="h" 
d="M137 664q30 0 58 -39q12 -17 12 -61v-107q34 12 66 12h22q104 0 185 -106q38 -63 38 -117v-178q0 -44 -63 -68h-25q-44 0 -69 62l-2 42v140q0 44 -60 67h-26q-43 0 -66 -61l-2 -41v-141q0 -44 -62 -68h-26q-44 0 -68 62v534q0 44 62 68h26z" />
    <glyph glyph-name="i" unicode="i" horiz-adv-x="254" 
d="M137 664q44 0 68 -62v-26q0 -44 -62 -68h-26q-44 0 -68 62v26q0 44 62 68h26zM137 469q44 0 68 -63v-338q0 -44 -62 -68h-26q-44 0 -68 62v338q0 44 62 69h26z" />
    <glyph glyph-name="j" unicode="j" horiz-adv-x="410" 
d="M293 664q44 0 68 -62v-26q0 -44 -62 -68h-26q-44 0 -68 62v26q0 44 63 68h25zM273 469h20q44 0 68 -63v-379q0 -104 -105 -185q-63 -37 -117 -37h-22q-44 0 -68 62v26q0 37 51 64q59 8 68 18q35 24 35 54v336q0 80 47 96q0 4 23 8z" />
    <glyph glyph-name="k" unicode="k" 
d="M137 664q30 0 58 -39q12 -17 12 -61v-306h2q0 19 92 103q93 108 127 108h21q38 0 65 -51l4 -23v-12q0 -34 -71 -94l-51 -55q118 -114 118 -130q4 -8 4 -22v-14q0 -43 -61 -68h-27q-34 0 -98 76q-121 117 -121 125l-2 10h-2v-98q0 -79 -27 -92q0 -10 -43 -21h-20
q-44 0 -68 62v534q0 44 62 68h26z" />
    <glyph glyph-name="l" unicode="l" horiz-adv-x="254" 
d="M137 664q44 0 68 -62v-534q0 -44 -62 -68h-26q-44 0 -68 62v534q0 44 62 68h26z" />
    <glyph glyph-name="m" unicode="m" horiz-adv-x="879" 
d="M271 469h22q75 0 146 -59q71 59 147 59h21q105 0 186 -106q37 -63 37 -117v-178q0 -44 -62 -68h-26q-44 0 -68 62l-2 42v140q0 44 -61 67h-25q-43 0 -66 -61l-2 -41v-141q0 -44 -63 -68h-25q-44 0 -69 62l-2 42v140q0 44 -60 67h-26q-43 0 -66 -61l-2 -41v-141
q0 -44 -62 -68h-26q-44 0 -68 62v184q0 105 105 186q63 37 117 37z" />
    <glyph glyph-name="n" unicode="n" 
d="M271 469h24q104 0 185 -106q38 -63 38 -117v-178q0 -44 -63 -68h-25q-44 0 -69 62l-2 42v140q0 44 -60 67h-26q-43 0 -66 -61l-2 -41v-141q0 -44 -62 -68h-26q-44 0 -68 62v184q0 105 105 186q63 37 117 37z" />
    <glyph glyph-name="o" unicode="o" 
d="M271 469h24q104 0 185 -106q38 -63 38 -117v-23q0 -105 -106 -186q-63 -37 -117 -37h-24q-104 0 -185 105q-37 63 -37 118v23q0 105 105 186q63 37 117 37zM207 225q0 -43 61 -67h25q43 0 66 61v25q0 44 -60 67h-26q-43 0 -66 -61v-25z" />
    <glyph glyph-name="p" unicode="p" 
d="M271 469h24q104 0 185 -106q38 -63 38 -117v-23q0 -105 -106 -186q-63 -37 -117 -37h-22q-30 0 -68 12v-139q0 -44 -62 -68h-26q-44 0 -68 62v379q0 105 105 186q63 37 117 37zM207 225q0 -43 61 -67h25q43 0 66 61v25q0 44 -60 67h-26q-43 0 -66 -61v-25z" />
    <glyph glyph-name="q" unicode="q" 
d="M271 469h24q104 0 185 -106q38 -63 38 -117v-373q0 -44 -63 -68h-25q-44 0 -69 62l-2 41v104q-33 -12 -66 -12h-22q-104 0 -185 105q-37 63 -37 118v23q0 105 105 186q63 37 117 37zM207 225q0 -43 61 -67h25q43 0 66 61v25q0 44 -60 67h-26q-43 0 -66 -61v-25z" />
    <glyph glyph-name="r" unicode="r" horiz-adv-x="410" 
d="M271 469h22q44 0 68 -63v-25q0 -44 -62 -69q-70 0 -90 -54l-4 -49v-141q0 -44 -62 -68h-26q-44 0 -68 62v184q0 105 105 186q63 37 117 37z" />
    <glyph glyph-name="s" unicode="s" horiz-adv-x="631" 
d="M336 469h23q105 0 186 -106q37 -63 37 -117v-23q0 -105 -105 -186q-63 -37 -118 -37h-177q-44 0 -69 62v26q0 44 63 68h146q84 0 98 53l4 16v19q0 44 -61 67h-25q-30 0 -84 -63q-87 -90 -106 -90l-11 -2h-20q-43 0 -68 61v27q0 34 97 121q92 104 190 104z" />
    <glyph glyph-name="t" unicode="t" horiz-adv-x="410" 
d="M137 664q30 0 58 -39q12 -17 12 -61v-91l-2 -2v-2h88q44 0 68 -63v-25q0 -44 -62 -69l-41 -1h-53v-51q0 -84 53 -98l54 -10q49 -29 49 -64v-20q0 -44 -62 -68h-28q-104 0 -185 105q-37 63 -37 118v373q0 44 62 68h26z" />
    <glyph glyph-name="u" unicode="u" 
d="M137 469q44 0 68 -63v-146q0 -84 53 -98l15 -4h20q43 0 66 61v146q0 80 47 96q0 4 24 8h19q44 0 69 -63v-183q0 -105 -106 -186q-63 -37 -117 -37h-24q-104 0 -185 105q-37 63 -37 118v177q0 44 62 69h26z" />
    <glyph glyph-name="v" unicode="v" 
d="M131 469q58 0 96 -104l56 -107q93 201 119 201q12 10 34 10h13q44 0 69 -63v-25q0 -20 -127 -262q-42 -96 -65 -107q-20 -12 -39 -12h-8q-56 0 -93 96q-55 99 -137 279v25q0 44 62 69h20z" />
    <glyph glyph-name="w" unicode="w" horiz-adv-x="879" 
d="M131 469q58 0 96 -104l56 -107q94 200 115 201q23 10 32 10h19q49 0 84 -92l63 -119q92 201 119 201q12 10 33 10h14q44 0 68 -63v-25q0 -20 -127 -262q-42 -96 -64 -107q-20 -12 -39 -12h-8q-56 0 -92 92q-4 0 -61 121h-2q-90 -191 -103 -195q-23 -18 -47 -18h-8
q-56 0 -93 96q-55 99 -137 279v25q0 44 62 69h20z" />
    <glyph glyph-name="x" unicode="x" 
d="M137 469q32 0 97 -74l49 -47q117 119 133 119l14 2h19q43 0 69 -61v-27q0 -32 -75 -98l-47 -49q120 -116 120 -132l2 -14v-20q0 -43 -61 -68h-27q-33 0 -98 74l-49 47q-116 -119 -133 -119l-13 -2h-20q-43 0 -68 61v27q0 32 74 98l47 48q-119 117 -119 133l-2 14v19
q0 43 60 69h28z" />
    <glyph glyph-name="y" unicode="y" 
d="M137 469q44 0 68 -63v-146q0 -84 53 -98l15 -4h20q43 0 66 61v146q0 80 47 96q0 4 24 8h19q44 0 69 -63v-379q0 -104 -106 -185q-63 -37 -117 -37h-22q-44 0 -68 62v26q0 30 39 58q16 9 68 16q42 26 42 43h-2q-26 -10 -59 -10h-22q-104 0 -185 105q-37 63 -37 118v177
q0 44 62 69h26z" />
    <glyph glyph-name="z" unicode="z" 
d="M449 469q44 0 69 -63v-21q0 -39 -73 -100l-127 -129h131q44 0 69 -62v-26q0 -44 -63 -68h-338q-44 0 -68 62v26q0 31 74 96l125 127h-96q-79 0 -95 46q-5 0 -8 24v19q0 44 62 69h338z" />
    <glyph glyph-name="braceleft" unicode="{" horiz-adv-x="412" 
d="M49 341q84 2 109 34.5t25 64.5v229q0 36 37.5 69t90.5 33h52v-24h-44q-29 0 -51.5 -16.5t-23.5 -44.5v-245q0 -40 -29.5 -77t-69.5 -37v-1q40 -1 70 -37.5t30 -77.5l-1 -244q1 -28 23.5 -44.5t51.5 -16.5h44v-24h-52q-53 0 -90.5 33t-37.5 69v228q0 33 -25 65t-109 35v29
z" />
    <glyph glyph-name="bar" unicode="|" horiz-adv-x="254" 
d="M137 469q44 0 68 -63v-338q0 -44 -62 -68h-26q-44 0 -68 62v338q0 44 62 69h26z" />
    <glyph glyph-name="braceright" unicode="}" horiz-adv-x="412" 
d="M363 312q-84 -3 -109 -35t-25 -65v-228q0 -36 -37.5 -69t-89.5 -33h-53v24h44q30 0 52 16.5t23 44.5l-1 244q0 41 30 77.5t71 37.5v1q-41 0 -70.5 37t-29.5 77v245q-1 28 -23 44.5t-52 16.5h-44v24h53q52 0 89.5 -33t37.5 -69v-229q0 -32 25 -64.5t109 -34.5v-29z" />
    <glyph glyph-name="asciitilde" unicode="~" horiz-adv-x="502" 
d="M454 429v-76q-31 -36 -60 -48.5t-57 -12.5q-29 0 -86.5 24t-85.5 24q-25 0 -53 -14t-63 -55v77q31 35 60 48t56 13q31 0 88.5 -24.5t83.5 -24.5t53.5 14t63.5 55z" />
    <glyph glyph-name="guillemotleft" unicode="&#xab;" horiz-adv-x="645" 
d="M293 469q68 -17 68 -74v-8q0 -39 -58 -86l-65 -69q119 -111 119 -128l4 -18v-16q0 -48 -64 -70h-20q-39 0 -101 74q-123 116 -123 135q-4 8 -4 21v14q0 32 70 92q120 133 149 133h25zM508 469h15q52 0 73 -65v-17q0 -41 -73 -102l-48 -51l111 -117q10 -20 10 -31v-12
q0 -52 -63 -74h-21q-39 0 -106 78q-119 114 -119 131q-4 8 -4 21v8q0 40 55 82q136 145 152 145z" />
    <glyph glyph-name="paragraph" unicode="&#xb6;" horiz-adv-x="506" 
d="M457 701v-34h-62v-667h-40v667h-81v-667h-41v360q-85 4 -134.5 50.5t-49.5 119.5q0 77 52.5 124t139.5 47h216z" />
    <glyph glyph-name="periodcentered" unicode="&#xb7;" horiz-adv-x="254" 
d="M137 322q44 0 68 -62v-26q0 -44 -62 -68h-26q-44 0 -68 63v25q0 44 62 68h26z" />
    <glyph glyph-name="periodcentered" unicode="&#x2219;" horiz-adv-x="254" 
d="M137 322q44 0 68 -62v-26q0 -44 -62 -68h-26q-44 0 -68 63v25q0 44 62 68h26z" />
    <glyph glyph-name="guillemotright" unicode="&#xbb;" horiz-adv-x="645" 
d="M137 469q35 0 109 -88q109 -104 109 -115q6 -13 6 -28v-8q0 -38 -58 -85q0 -8 -135 -135q-20 -10 -35 -10h-16q-37 0 -64 51l-4 23v12q0 34 70 94l51 54q-117 115 -117 131q-4 8 -4 22v13q0 44 60 69h28zM352 469h19q34 0 109 -86q108 -107 108 -112l8 -27v-14
q0 -40 -65 -93q-126 -133 -142 -133q-8 -4 -22 -4h-15q-36 0 -63 47l-6 23v16q0 34 74 98l49 50q-119 115 -119 131q-4 8 -4 22v8q0 57 69 74z" />
  </font>
</defs>
</svg>
